<svg width="22" height="33" viewBox="0 0 22 33" fill="none" xmlns="http://www.w3.org/2000/svg">
<path fill-rule="evenodd" clip-rule="evenodd" d="M19 32.1062L3 32.1082C1.343 32.1082 0 30.7652 0 29.1082V3.10818C0 1.45018 1.343 0.107178 3 0.107178H19C20.657 0.107178 22 1.44918 22 3.10718V29.1072C22 30.7642 20.657 32.1062 19 32.1062ZM20 3.10718C20 2.55518 19.552 2.10718 19 2.10718L3 2.10818C2.448 2.10818 2 2.55618 2 3.10818V5.10818L20 5.10718V3.10718ZM20 6.10718H2V26.1042L20 26.1032V6.10718ZM20 27.1032L2 27.1042V29.1082C2 29.6592 2.448 30.1082 3 30.1082L19 30.1062C19.552 30.1062 20 29.6582 20 29.1072V27.1032ZM11.5 29.1032H10.5C10.224 29.1032 10 28.8792 10 28.6032C10 28.3262 10.224 28.1032 10.5 28.1032H11.5C11.776 28.1032 12 28.3262 12 28.6032C12 28.8792 11.776 29.1032 11.5 29.1032ZM9.5 3.10718H12.5C12.776 3.10718 13 3.33018 13 3.60718C13 3.88318 12.776 4.10718 12.5 4.10718H9.5C9.224 4.10718 9 3.88318 9 3.60718C9 3.33018 9.224 3.10718 9.5 3.10718Z" fill="#666D89"/>
</svg>
