<svg width="32" height="29" viewBox="0 0 32 29" fill="none" xmlns="http://www.w3.org/2000/svg">
<path fill-rule="evenodd" clip-rule="evenodd" d="M29.1898 16.286C29.0688 16.4051 18.1368 27.2294 18.1368 27.2294C16.9548 28.3998 15.0418 28.3998 13.8588 27.2294C13.8588 27.2294 3.87575 17.3443 2.80575 16.286C-0.93525 12.5804 -0.93525 6.5741 2.80575 2.86957C6.43675 -0.725828 12.2378 -0.80092 15.9978 2.58222C19.7588 -0.80092 25.5598 -0.725828 29.1898 2.86957C32.9308 6.5741 32.9308 12.5804 29.1898 16.286ZM27.7628 4.28129C24.9208 1.46585 20.3468 1.36673 17.3538 4.05902L15.9978 5.27952L14.6418 4.05902C11.6488 1.36673 7.07675 1.46585 4.23275 4.28129C1.28275 7.20187 1.28275 11.9527 4.23275 14.8732L15.2858 25.8166C15.6768 26.2061 16.3178 26.2061 16.7108 25.8166L27.7628 14.8732C30.7138 11.9527 30.7138 7.20187 27.7628 4.28129ZM9.24975 6.10653C7.45575 6.10653 5.99975 7.56231 5.99975 9.3555V9.3565C5.99975 9.63284 5.77575 9.85711 5.49975 9.85711C5.22275 9.85711 4.99975 9.63284 4.99975 9.3565C4.99975 7.01063 6.90075 5.10931 9.24575 5.1073C9.24775 5.1073 9.24775 5.1063 9.24975 5.1063C9.52575 5.1063 9.74975 5.33058 9.74975 5.60692C9.74975 5.88325 9.52575 6.10653 9.24975 6.10653Z" fill="#666D89"/>
</svg>
